Coordinates
version=1
nRows=24
nColumns=24
inDegrees=yes

Units are S.I. units (second, meters, Newtons, ...)
Angles are in degrees.

endheader
time	pelvis_tilt	pelvis_list	pelvis_rotation	pelvis_tx	pelvis_ty	pelvis_tz	hip_flexion_r	hip_adduction_r	hip_rotation_r	knee_angle_r	ankle_angle_r	subtalar_angle_r	mtp_angle_r	hip_flexion_l	hip_adduction_l	hip_rotation_l	knee_angle_l	ankle_angle_l	subtalar_angle_l	mtp_angle_l	lumbar_extension	lumbar_bending	lumbar_rotation
      0.58300000	     -2.98037848	      6.98990197	      0.34664025	     -0.77506931	      0.99042442	      0.27469328	     27.66869850	     -6.96983850	     -7.76221454	      1.13610194	      0.76431201	     -3.77926012	     -0.38462080	    -10.70534317	      9.09613760	     -8.79767085	     -6.20163177	      9.81581094	     -4.15651227	     -0.01007927	    -10.20478929	     -8.00023456	     -1.85497944
      0.58716667	     -2.69215066	      6.86964251	      0.25706732	     -0.76935720	      0.99012321	      0.27502995	     27.48988891	     -6.79127436	     -7.38956020	      0.52640156	      0.58593233	     -4.18523617	     -0.59024663	    -11.20439415	      8.90740083	     -8.90042627	     -6.53143418	      9.93529416	     -3.91070296	     -0.06078906	    -10.52558558	     -7.79199324	     -1.83610768
      0.59133333	     -2.43191687	      6.72721868	      0.27576940	     -0.76358648	      0.98986711	      0.27508846	     27.31217653	     -6.65169832	     -7.19916821	     -0.12308111	      0.42566178	     -4.46843388	     -0.76610321	    -11.66776807	      8.69036251	     -8.82829174	     -6.89144704	     10.07541568	     -3.77722243	     -0.09691326	    -10.81040296	     -7.51856591	     -1.89280686
      0.59550000	     -2.18186724	      6.58266322	      0.29271029	     -0.75776722	      0.98963032	      0.27516546	     27.13730769	     -6.50531708	     -7.01082453	     -0.79553332	      0.21267404	     -4.77367832	     -0.90170287	    -12.11325216	      8.47148310	     -8.74949032	     -7.26357649	     10.16733583	     -3.70754758	     -0.11652534	    -11.07852248	     -7.23971881	     -1.98848017
      0.59966667	     -1.93799137	      6.42269313	      0.31182000	     -0.75188561	      0.98942174	      0.27528095	     26.95185880	     -6.33820046	     -6.84022038	     -1.47013398	     -0.06024749	     -5.11086580	     -0.99800070	    -12.54837384	      8.23199520	     -8.65702307	     -7.64727254	     10.25708874	     -3.61552511	     -0.12003022	    -11.33887789	     -6.96265920	     -2.07562704
      0.60383333	     -1.67675168	      6.24440844	      0.32843212	     -0.74596650	      0.98928738	      0.27544192	     26.72084068	     -6.14545536	     -6.67068541	     -2.11566102	     -0.41383651	     -5.48271333	     -1.07457531	    -12.97842973	      7.96463195	     -8.62963381	     -8.07624258	     10.28686639	     -3.52126387	     -0.10769833	    -11.61135547	     -6.64668382	     -2.16648376
      0.60800000	     -1.41119066	      6.05932918	      0.33092377	     -0.74000168	      0.98917926	      0.27566199	     26.47240208	     -5.93397223	     -6.49683123	     -2.74951293	     -0.83030493	     -5.89651368	     -1.12583903	    -13.40985613	      7.69000554	     -8.60849010	     -8.51581561	     10.31551318	     -3.41207877	     -0.07843928	    -11.87956184	     -6.32983300	     -2.23161431
      0.61216667	     -1.18745152	      5.87833609	      0.32823150	     -0.73400267	      0.98904645	      0.27593803	     26.26292498	     -5.71705624	     -6.32500570	     -3.37965366	     -1.31465945	     -6.33350332	     -1.14961765	    -13.78311204	      7.41983368	     -8.57738434	     -8.97708777	     10.32199207	     -3.34455403	     -0.03643253	    -12.10319511	     -6.04388251	     -2.29172610
      0.61633333	     -0.95130630	      5.68136909	      0.31524938	     -0.72795945	      0.98898270	      0.27627470	     26.01114323	     -5.47365888	     -6.13438546	     -3.96133457	     -1.85954535	     -6.82465009	     -1.15392026	    -14.14751273	      7.12513850	     -8.61937734	     -9.48093284	     10.26288158	     -3.22749238	      0.03026901	    -12.33019646	     -5.71780916	     -2.33658027
      0.62050000	     -0.67569705	      5.46905557	      0.24106854	     -0.72187028	      0.98899160	      0.27676966	     25.71205469	     -5.18447556	     -5.91922198	     -4.51967024	     -2.47329492	     -7.29414119	     -1.12754208	    -14.54989088	      6.82032869	     -8.74365155	     -9.99112799	     10.22750656	     -3.06295729	      0.16325897	    -12.59518879	     -5.40280972	     -2.34172315
      0.62466667	     -0.52218220	      5.28714230	      0.23221968	     -0.71578053	      0.98888998	      0.27715950	     25.53028880	     -4.95028269	     -5.73895529	     -5.06758966	     -3.13186223	     -7.85367662	     -1.09824687	    -14.79112658	      6.54072601	     -8.76364750	    -10.55775569	     10.09232469	     -3.03620210	      0.27219946	    -12.71871874	     -5.10803574	     -2.34728166
      0.62883333	     -0.33881508	      5.07693300	      0.16934767	     -0.70965651	      0.98886002	      0.27771560	     25.30308011	     -4.65712200	     -5.51884316	     -5.57473165	     -3.87381223	     -8.44998387	     -1.05536793	    -15.05098663	      6.23333949	     -8.86623043	    -11.14823164	      9.94939214	     -2.95467081	      0.40658200	    -12.88245686	     -4.81380175	     -2.33923570
      0.63300000	     -0.07570883	      4.84516582	      0.01598167	     -0.70349621	      0.98895477	      0.27848253	     24.98918193	     -4.30299796	     -5.23733851	     -6.05832853	     -4.64987295	     -9.02481936	     -0.95582492	    -15.38590414	      5.90883452	     -9.14429186	    -11.75780333	      9.81660292	     -2.73389611	      0.68257031	    -13.12396546	     -4.50862451	     -2.24629128
      0.63716667	      0.06675317	      4.64301852	     -0.09620098	     -0.69733981	      0.98893665	      0.27917971	     24.80073906	     -3.99566756	     -4.97474696	     -6.54184984	     -5.44322896	     -9.64796841	     -0.84819105	    -15.55806967	      5.61357972	     -9.33432199	    -12.42931997	      9.59801872	     -2.65298505	      0.99952417	    -13.22842838	     -4.23166026	     -2.17637015
      0.64133333	      0.16310529	      4.43882674	     -0.15799864	     -0.69114850	      0.98892925	      0.27973089	     24.65001468	     -3.71818960	     -4.79826963	     -7.02848587	     -6.19263436	    -10.23879712	     -0.78938423	    -15.65972807	      5.31557256	     -9.42796698	    -13.13509820	      9.29936774	     -2.70752586	      1.19953514	    -13.27199803	     -3.93182691	     -2.09453597
      0.64550000	      0.34610630	      4.20281030	     -0.39291105	     -0.68493735	      0.98901665	      0.28074976	     24.41707737	     -3.32151469	     -4.43998889	     -7.48868978	     -7.01214474	    -10.86054612	     -0.65113693	    -15.84051836	      4.99027224	     -9.82997885	    -13.87162066	      9.03360632	     -2.47786833	      1.68206741	    -13.42068470	     -3.65903713	     -1.91554307
      0.64966667	      0.39700880	      4.00998828	     -0.46833054	     -0.67874474	      0.98904042	      0.28133440	     24.31309770	     -3.05768861	     -4.26811031	     -7.97509026	     -7.72229472	    -11.40865130	     -0.60000118	    -15.83537088	      4.70397752	     -9.93643447	    -14.67833576	      8.63678081	     -2.61867460	      1.91385068	    -13.41371728	     -3.37496484	     -1.82390419
      0.65383333	      0.53521747	      3.78565748	     -0.72143619	     -0.67257497	      0.98914815	      0.28244677	     24.12704109	     -2.66684918	     -3.87466007	     -8.43597217	     -8.50098422	    -12.02504779	     -0.48952140	    -15.89807462	      4.38162289	    -10.36810461	    -15.54336452	      8.28247879	     -2.42340832	      2.45106590	    -13.52197658	     -3.13847130	     -1.61201905
      0.65800000	      0.61761710	      3.52342314	     -1.02949158	     -0.66625524	      0.98918812	      0.28359355	     24.01478680	     -2.22459241	     -3.49536587	     -8.95684837	     -9.12261541	    -12.59776917	     -0.31109634	    -15.90686641	      4.03573306	    -10.87379976	    -16.40878519	      7.82998225	     -2.31078037	      3.51814528	    -13.52829894	     -2.83483849	     -1.29374838
      0.66216667	      0.63426734	      3.35178371	     -1.09097342	     -0.66007430	      0.98933445	      0.28405667	     23.95382065	     -2.02097072	     -3.42187122	     -9.48113245	     -9.70058853	    -12.84487297	     -0.29875247	    -15.77298631	      3.77015051	    -10.91378758	    -17.35624465	      7.24055460	     -2.58264181	      3.66829098	    -13.49663527	     -2.57326445	     -1.23373733
      0.66633333	      0.67969241	      3.13541578	     -1.22634542	     -0.65386950	      0.98952631	      0.28475575	     23.85859954	     -1.72760207	     -3.25079947	    -10.00340108	    -10.22770207	    -13.24708281	     -0.28485875	    -15.64269357	      3.44888693	    -11.11738381	    -18.36471376	      6.64739242	     -2.75362620	      3.87095430	    -13.49029929	     -2.27574939	     -1.14619075
      0.67050000	      0.56208511	      3.00147983	     -1.69588436	     -0.64774838	      0.98922177	      0.28645601	     24.05364980	     -1.32055703	     -2.59516327	    -10.67303677	    -10.67590140	    -13.86174587	      0.15604623	    -15.30064808	      3.21162661	    -11.82489537	    -19.46824539	      6.05460297	     -2.64874111	     12.81059639	    -13.28076402	     -2.21364898	     -0.70702177
      0.67466667	      0.76034370	      2.70627627	     -1.80744249	     -0.64155721	      0.98977099	      0.28708209	     23.75326122	     -0.97773410	     -2.52452854	    -11.15448393	    -11.11944285	    -14.18191473	      0.13870504	    -15.27425781	      2.78470633	    -12.03932936	    -20.58414033	      5.41145978	     -2.76097442	     12.90883549	    -13.47421441	     -1.82972312	     -0.49691560
      0.67883333	      0.81331174	      2.46961782	     -2.00305303	     -0.63539600	      0.99005121	      0.28794473	     23.64739195	     -0.64509990	     -2.30677861	    -11.69628566	    -11.45849272	    -14.43456933	      0.11710221	    -15.04659166	      2.41541613	    -12.34852104	    -21.78864570	      4.71744594	     -2.90038838	     13.03800453	    -13.48487659	     -1.54448448	     -0.32719990
